<?xml version="1.0" encoding="UTF-8"?><svg xmlns="http://www.w3.org/2000/svg" xmlns:xlink="http://www.w3.org/1999/xlink" fill-opacity="1" color-rendering="auto" color-interpolation="auto" text-rendering="auto" stroke="black" stroke-linecap="square" width="548" stroke-miterlimit="10" shape-rendering="auto" stroke-opacity="1" fill="black" stroke-dasharray="none" font-weight="normal" stroke-width="1" height="269" font-family="'Dialog'" font-style="normal" stroke-linejoin="miter" font-size="12px" stroke-dashoffset="0" image-rendering="auto">
  <!--Generated by ySVG 2.5-->
  <defs id="genericDefs"/>
  <g>
    <defs id="defs1">
      <clipPath clipPathUnits="userSpaceOnUse" id="clipPath1">
        <path d="M0 0 L548 0 L548 269 L0 269 L0 0 Z"/>
      </clipPath>
      <clipPath clipPathUnits="userSpaceOnUse" id="clipPath2">
        <path d="M509 -103 L1057 -103 L1057 166 L509 166 L509 -103 Z"/>
      </clipPath>
    </defs>
    <g fill="white" text-rendering="geometricPrecision" shape-rendering="geometricPrecision" transform="translate(-509,103)" stroke="white">
      <rect x="509" width="548" height="269" y="-103" clip-path="url(#clipPath2)" stroke="none"/>
    </g>
    <g font-size="60px" stroke-linecap="butt" transform="matrix(1,0,0,1,-509,103)" text-rendering="geometricPrecision" font-family="'IBM Plex Sans'" shape-rendering="geometricPrecision" font-weight="bold" stroke-miterlimit="1.45">
      <text x="801.3337" xml:space="preserve" y="98.0088" clip-path="url(#clipPath2)" stroke="none">genetics</text>
      <text x="526.4874" xml:space="preserve" font-size="180px" y="99.0262" clip-path="url(#clipPath2)" stroke="none">IEI</text>
    </g>
    <g fill="white" text-rendering="geometricPrecision" shape-rendering="geometricPrecision" transform="matrix(1,0,0,1,-509,103)" stroke="white">
      <circle r="15" clip-path="url(#clipPath2)" cx="969.571" cy="49.258" stroke="none"/>
      <circle fill="rgb(253,215,126)" r="15" clip-path="url(#clipPath2)" cx="917.4396" cy="-10.742" stroke="none"/>
    </g>
    <g text-rendering="geometricPrecision" stroke-miterlimit="1.45" stroke-width="3" shape-rendering="geometricPrecision" transform="matrix(1,0,0,1,-509,103)" stroke-linecap="butt">
      <circle fill="none" r="15" clip-path="url(#clipPath2)" cx="917.4396" cy="-10.742"/>
    </g>
    <g fill="rgb(95,188,255)" text-rendering="geometricPrecision" shape-rendering="geometricPrecision" transform="matrix(1,0,0,1,-509,103)" stroke="rgb(95,188,255)">
      <circle r="15" clip-path="url(#clipPath2)" cx="1022.6848" cy="-10.742" stroke="none"/>
    </g>
    <g text-rendering="geometricPrecision" stroke-miterlimit="1.45" stroke-width="3" shape-rendering="geometricPrecision" transform="matrix(1,0,0,1,-509,103)" stroke-linecap="butt">
      <circle fill="none" r="15" clip-path="url(#clipPath2)" cx="1022.6848" cy="-10.742"/>
    </g>
    <g fill="rgb(255,172,128)" text-rendering="geometricPrecision" shape-rendering="geometricPrecision" transform="matrix(1,0,0,1,-509,103)" stroke="rgb(255,172,128)">
      <circle r="15" clip-path="url(#clipPath2)" cx="969.571" cy="41.622" stroke="none"/>
    </g>
    <g text-rendering="geometricPrecision" stroke-miterlimit="1.45" stroke-width="3" shape-rendering="geometricPrecision" transform="matrix(1,0,0,1,-509,103)" stroke-linecap="butt">
      <circle fill="none" r="15" clip-path="url(#clipPath2)" cx="969.571" cy="41.622"/>
    </g>
    <g fill="rgb(255,172,128)" text-rendering="geometricPrecision" shape-rendering="geometricPrecision" transform="matrix(1,0,0,1,-509,103)" stroke="rgb(255,172,128)">
      <circle r="15" clip-path="url(#clipPath2)" cx="857.4396" cy="21.9508" stroke="none"/>
    </g>
    <g text-rendering="geometricPrecision" stroke-miterlimit="1.45" stroke-width="3" shape-rendering="geometricPrecision" transform="matrix(1,0,0,1,-509,103)" stroke-linecap="butt">
      <circle fill="none" r="15" clip-path="url(#clipPath2)" cx="857.4396" cy="21.9508"/>
    </g>
    <g fill="rgb(253,215,126)" text-rendering="geometricPrecision" shape-rendering="geometricPrecision" transform="matrix(1,0,0,1,-509,103)" stroke="rgb(253,215,126)">
      <circle r="15" clip-path="url(#clipPath2)" cx="818.6848" cy="-10.742" stroke="none"/>
    </g>
    <g text-rendering="geometricPrecision" stroke-miterlimit="1.45" stroke-width="3" shape-rendering="geometricPrecision" transform="matrix(1,0,0,1,-509,103)" stroke-linecap="butt">
      <circle fill="none" r="15" clip-path="url(#clipPath2)" cx="818.6848" cy="-10.742"/>
      <path fill="none" d="M980.2527 31.091 L1012.0031 -0.211" clip-path="url(#clipPath2)"/>
      <path fill="none" d="M870.6112 14.7739 L904.2679 -3.565" clip-path="url(#clipPath2)"/>
      <path fill="none" d="M872.214 24.5427 L954.7966 39.0301" clip-path="url(#clipPath2)"/>
      <path fill="none" d="M845.9742 12.2789 L830.1501 -1.07" clip-path="url(#clipPath2)"/>
    </g>
  </g>
</svg>
